<svg xmlns="http://www.w3.org/2000/svg" xmlns:xlink="http://www.w3.org/1999/xlink" width="126" height="22" viewBox="0 0 126 22">
    <defs>
        <path id="a" d="M0 0h125v22H0z"/>
    </defs>
    <g fill="none" fill-rule="evenodd">
        <mask id="b" fill="#fff">
            <use xlink:href="#a"/>
        </mask>
        <path fill="#F8822F" fill-rule="nonzero" d="M12.92 21.397l-2-7.594-2.001 7.594H4.736L0 6.544h4.101l2.721 10.015L9.161 6.544h3.5l2.344 10.008L17.74 6.544h4.103l-4.73 14.853zM29.163 6.247c4.21-.018 6.332 2.461 6.332 6.068v3.348c0 2.856-1.575 6.031-6.336 6.031-4.76 0-6.406-3.126-6.406-6.03v-3.349c0-3.696 2.136-6.062 6.406-6.062l.004-.006zm-2.488 6.068v3.348c0 1.601.675 2.946 2.488 2.946 1.814 0 2.403-1.335 2.403-2.946v-3.348c0-1.91-.801-2.996-2.403-2.996-1.757-.006-2.488.947-2.488 2.996zM44.9 6.247c.51-.006 1.02.048 1.517.162l-.044 3.07c-.989-.212-1.78-.302-2.373-.162-1.45.162-2.195 1.139-2.195 3.006v9.074h-3.883V6.26h2.957l.166 1.662c1.01-1.284 2.22-1.674 3.855-1.674zM56.879 6.316h4.591l-5.464 6.332 6.49 8.745h-4.32L53.8 15.254l-1.372 1.36v4.783H48.54V.603h3.896v10.786zM70.062.307a9.212 9.212 0 0 1 1.839.151v3.018a4.946 4.946 0 0 0-1.61-.041c-1.177.163-1.783.969-1.783 2.537v.581h3.169v2.876h-3.175v11.968h-3.883V5.45C64.617 1.611 67.424.354 70.062.307zM81.002 6.247c.51-.006 1.02.048 1.517.162l-.046 3.068c-.989-.212-1.78-.302-2.373-.161-1.448.161-2.195 1.138-2.195 3.005v9.076h-3.88V6.26h2.956l.166 1.663c1.01-1.285 2.22-1.675 3.855-1.675zM90.443 6.247c4.204-.018 6.335 2.461 6.335 6.062v3.354c0 2.856-1.576 6.031-6.335 6.031-4.76 0-6.407-3.126-6.407-6.03v-3.349c0-3.696 2.136-6.062 6.407-6.062v-.006zm-2.491 6.068v3.348c0 1.601.675 2.946 2.49 2.946 1.817 0 2.403-1.335 2.403-2.946v-3.348c0-1.91-.8-2.996-2.402-2.996-1.76-.006-2.491.947-2.491 2.996zM106.16 6.247c2.916-.012 5.786 1.522 5.786 5.307v9.843h-3.934v-9.581c0-1.81-.656-2.647-2.443-2.647a6.799 6.799 0 0 0-2.43.436v11.792h-3.934V6.47h3l.1.78a7.826 7.826 0 0 1 3.855-.998v-.004zM122.047 6.573v3.048h-3.172V15.5c0 1.577.396 2.654 1.738 3.022.64.145 1.302.172 1.952.079v2.994c-.739.11-1.488.13-2.231.06-2.734-.267-5.354-1.72-5.354-5.47V2.98h3.887v3.594h3.18zM123.473 5.112a1.214 1.214 0 1 1 .005-2.428 1.214 1.214 0 0 1-.005 2.428zm0-2.273a1.05 1.05 0 0 0-.745 1.796 1.05 1.05 0 0 0 1.793-.746 1.047 1.047 0 0 0-1.048-1.042V2.84zm.332 1.748l-.36-.54h-.25v.55h-.185V3.204h.572a.423.423 0 0 1 .436.432.413.413 0 0 1-.355.413l.371.556-.229-.017zm-.23-1.24h-.38v.517h.387a.258.258 0 0 0 0-.517h-.006z" mask="url(#b)"/>
    </g>
</svg>
